<?xml version="1.0" encoding="utf-8"?>
<!-- Generator: Adobe Illustrator 21.1.0, SVG Export Plug-In . SVG Version: 6.00 Build 0)  -->
<svg version="1.1" id="Layer_1" xmlns="http://www.w3.org/2000/svg" xmlns:xlink="http://www.w3.org/1999/xlink" x="0px" y="0px"
	 viewBox="0 0 576.2 575.9" style="enable-background:new 0 0 576.2 575.9;" xml:space="preserve">
<style type="text/css">
	.st0{fill:#FFB757;}
</style>
<g>
	<g>
		<polygon class="st0" points="72,0 0,38.3 0,63.9 72,25.6 144,63.9 144,38.3 		"/>
		<polygon class="st0" points="216.1,0 144,38.3 144,63.9 216.1,25.6 288.1,63.9 288.1,38.3 		"/>
		<polygon class="st0" points="360.1,0 288.1,38.3 288.1,63.9 360.1,25.6 432.1,63.9 432.1,38.3 		"/>
		<polygon class="st0" points="504.1,0 432.1,38.3 432.1,63.9 504.1,25.6 576.2,63.9 576.2,38.3 		"/>
	</g>
	<g>
		<polygon class="st0" points="72,56.9 0,95.2 0,120.8 72,82.4 144,120.8 144,95.2 		"/>
		<polygon class="st0" points="216.1,56.9 144,95.2 144,120.8 216.1,82.4 288.1,120.8 288.1,95.2 		"/>
		<polygon class="st0" points="360.1,56.9 288.1,95.2 288.1,120.8 360.1,82.4 432.1,120.8 432.1,95.2 		"/>
		<polygon class="st0" points="504.1,56.9 432.1,95.2 432.1,120.8 504.1,82.4 576.2,120.8 576.2,95.2 		"/>
	</g>
	<g>
		<polygon class="st0" points="72,113.8 0,152.1 0,177.7 72,139.3 144,177.7 144,152.1 		"/>
		<polygon class="st0" points="216.1,113.8 144,152.1 144,177.7 216.1,139.3 288.1,177.7 288.1,152.1 		"/>
		<polygon class="st0" points="360.1,113.8 288.1,152.1 288.1,177.7 360.1,139.3 432.1,177.7 432.1,152.1 		"/>
		<polygon class="st0" points="504.1,113.8 432.1,152.1 432.1,177.7 504.1,139.3 576.2,177.7 576.2,152.1 		"/>
	</g>
	<g>
		<polygon class="st0" points="72,170.7 0,209 0,234.6 72,196.2 144,234.6 144,209 		"/>
		<polygon class="st0" points="216.1,170.7 144,209 144,234.6 216.1,196.2 288.1,234.6 288.1,209 		"/>
		<polygon class="st0" points="360.1,170.7 288.1,209 288.1,234.6 360.1,196.2 432.1,234.6 432.1,209 		"/>
		<polygon class="st0" points="504.1,170.7 432.1,209 432.1,234.6 504.1,196.2 576.2,234.6 576.2,209 		"/>
	</g>
	<g>
		<polygon class="st0" points="72,227.6 0,265.9 0,291.4 72,253.1 144,291.4 144,265.9 		"/>
		<polygon class="st0" points="216.1,227.6 144,265.9 144,291.4 216.1,253.1 288.1,291.4 288.1,265.9 		"/>
		<polygon class="st0" points="360.1,227.6 288.1,265.9 288.1,291.4 360.1,253.1 432.1,291.4 432.1,265.9 		"/>
		<polygon class="st0" points="504.1,227.6 432.1,265.9 432.1,291.4 504.1,253.1 576.2,291.4 576.2,265.9 		"/>
	</g>
	<g>
		<polygon class="st0" points="72,284.4 0,322.8 0,348.3 72,310 144,348.3 144,322.8 		"/>
		<polygon class="st0" points="216.1,284.4 144,322.8 144,348.3 216.1,310 288.1,348.3 288.1,322.8 		"/>
		<polygon class="st0" points="360.1,284.4 288.1,322.8 288.1,348.3 360.1,310 432.1,348.3 432.1,322.8 		"/>
		<polygon class="st0" points="504.1,284.4 432.1,322.8 432.1,348.3 504.1,310 576.2,348.3 576.2,322.8 		"/>
	</g>
	<g>
		<polygon class="st0" points="72,341.3 0,379.7 0,405.2 72,366.9 144,405.2 144,379.7 		"/>
		<polygon class="st0" points="216.1,341.3 144,379.7 144,405.2 216.1,366.9 288.1,405.2 288.1,379.7 		"/>
		<polygon class="st0" points="360.1,341.3 288.1,379.7 288.1,405.2 360.1,366.9 432.1,405.2 432.1,379.7 		"/>
		<polygon class="st0" points="504.1,341.3 432.1,379.7 432.1,405.2 504.1,366.9 576.2,405.2 576.2,379.7 		"/>
	</g>
	<g>
		<polygon class="st0" points="72,398.2 0,436.6 0,462.1 72,423.8 144,462.1 144,436.6 		"/>
		<polygon class="st0" points="216.1,398.2 144,436.6 144,462.1 216.1,423.8 288.1,462.1 288.1,436.6 		"/>
		<polygon class="st0" points="360.1,398.2 288.1,436.6 288.1,462.1 360.1,423.8 432.1,462.1 432.1,436.6 		"/>
		<polygon class="st0" points="504.1,398.2 432.1,436.6 432.1,462.1 504.1,423.8 576.2,462.1 576.2,436.6 		"/>
	</g>
	<g>
		<polygon class="st0" points="72,455.1 0,493.4 0,519 72,480.7 144,519 144,493.4 		"/>
		<polygon class="st0" points="216.1,455.1 144,493.4 144,519 216.1,480.7 288.1,519 288.1,493.4 		"/>
		<polygon class="st0" points="360.1,455.1 288.1,493.4 288.1,519 360.1,480.7 432.1,519 432.1,493.4 		"/>
		<polygon class="st0" points="504.1,455.1 432.1,493.4 432.1,519 504.1,480.7 576.2,519 576.2,493.4 		"/>
	</g>
	<g>
		<polygon class="st0" points="72,512 0,550.3 0,575.9 72,537.6 144,575.9 144,550.3 		"/>
		<polygon class="st0" points="216.1,512 144,550.3 144,575.9 216.1,537.6 288.1,575.9 288.1,550.3 		"/>
		<polygon class="st0" points="360.1,512 288.1,550.3 288.1,575.9 360.1,537.6 432.1,575.9 432.1,550.3 		"/>
		<polygon class="st0" points="504.1,512 432.1,550.3 432.1,575.9 504.1,537.6 576.2,575.9 576.2,550.3 		"/>
	</g>
</g>
</svg>
